<?xml version="1.0" standalone="no"?>
<!DOCTYPE svg PUBLIC "-//W3C//DTD SVG 20010904//EN"
 "http://www.w3.org/TR/2001/REC-SVG-20010904/DTD/svg10.dtd">
<svg version="1.0" xmlns="http://www.w3.org/2000/svg"
 width="486.000000pt" height="486.000000pt" viewBox="0 0 486.000000 486.000000"
 preserveAspectRatio="xMidYMid meet">
<metadata>
Created by potrace 1.11, written by Peter Selinger 2001-2013
</metadata>
<g transform="translate(0.000000,486.000000) scale(0.100000,-0.100000)"
fill="#000000" stroke="none">
<path d="M2397 4650 c-48 -12 -116 -46 -145 -74 -53 -48 -84 -149 -70 -231 5
-27 9 -65 9 -84 0 -19 4 -40 10 -47 16 -20 30 -81 35 -154 4 -60 7 -68 42
-100 75 -70 116 -100 136 -101 12 0 38 -2 59 -5 36 -4 69 11 114 53 7 6 22 14
32 18 28 9 51 49 56 99 2 25 11 61 20 82 8 20 15 46 15 58 0 12 8 32 17 45 9
14 17 40 18 60 1 20 5 65 9 101 6 54 4 77 -13 125 -24 67 -53 97 -130 133 -59
27 -153 37 -214 22z"/>
<path d="M2106 4011 c-9 -10 -16 -23 -16 -29 0 -7 -4 -12 -8 -12 -26 0 -37
-109 -13 -133 7 -7 26 -7 65 3 54 13 56 13 141 -26 47 -21 84 -42 82 -47 -4
-12 -198 -88 -208 -81 -4 2 -10 0 -14 -6 -3 -5 -19 -10 -34 -10 -54 0 -84 -47
-53 -82 14 -17 12 -18 -37 -18 -29 0 -61 -4 -71 -10 -12 -6 -45 -6 -99 2 -78
12 -82 11 -101 -10 -32 -34 -25 -68 17 -90 26 -14 210 -11 237 5 14 8 33 7 70
-3 63 -17 172 -20 191 -4 9 8 25 8 52 1 73 -19 166 -18 185 3 10 11 21 11 63
0 62 -17 151 -19 187 -5 18 7 38 7 60 0 55 -16 167 -14 184 3 13 13 23 13 72
2 116 -28 166 -12 160 50 -5 48 -34 57 -158 52 -58 -3 -122 -8 -143 -11 -36
-7 -37 -6 -36 21 2 38 -15 80 -38 92 -10 5 -40 12 -68 15 -27 4 -77 18 -110
32 -33 14 -73 31 -88 37 -16 6 -25 14 -20 18 4 5 48 22 98 40 78 27 98 30 152
24 60 -6 63 -5 72 17 6 18 5 29 -7 42 -9 10 -17 28 -18 40 -3 64 -39 94 -75
61 -10 -9 -19 -21 -19 -26 0 -5 -6 -15 -12 -22 -13 -12 -148 -79 -236 -117
-40 -18 -92 -22 -92 -8 0 3 -35 29 -78 56 -43 28 -99 72 -125 97 -25 25 -50
46 -54 47 -4 0 -16 2 -25 4 -9 2 -24 -5 -32 -14z m407 -310 c29 -15 89 -48
135 -72 45 -24 82 -46 82 -50 0 -16 -86 -30 -129 -20 -60 13 -173 9 -178 -6
-3 -9 -11 -9 -31 -2 -40 15 -164 22 -194 10 -15 -6 -30 -6 -33 -1 -7 11 22 40
40 40 7 0 21 7 29 15 15 16 204 114 219 115 4 0 31 -13 60 -29z"/>
<path d="M1266 3215 c-86 -107 -159 -201 -162 -209 -3 -9 3 -17 18 -21 55 -17
159 -160 196 -270 31 -91 45 -260 31 -345 -4 -19 -29 -120 -57 -225 -28 -104
-54 -208 -57 -230 -4 -22 -9 -56 -12 -75 -11 -76 -5 -246 12 -314 49 -195 144
-344 281 -442 148 -106 356 -177 579 -199 111 -11 211 -51 308 -122 27 -20 52
-32 55 -27 14 19 79 62 139 92 65 33 119 48 200 57 26 2 59 7 73 9 14 3 43 8
65 11 142 20 315 91 442 182 81 57 114 92 170 181 107 171 145 351 120 577
-10 85 -16 109 -98 415 -17 63 -32 145 -34 181 -3 69 15 202 35 266 37 114
119 233 184 268 20 11 36 23 36 28 0 7 -233 303 -250 317 -3 3 -20 24 -38 47
l-32 41 -74 -34 c-178 -82 -352 -86 -516 -12 -35 16 -67 33 -70 38 -3 5 -30
-3 -60 -19 -95 -50 -177 -72 -277 -76 -115 -4 -203 15 -304 64 l-76 37 -58
-32 c-164 -91 -370 -86 -567 12 l-46 23 -156 -194z"/>
<path d="M3908 1783 c-29 -18 -43 -55 -31 -78 4 -7 38 -37 75 -65 l67 -51 -26
-47 c-38 -69 -69 -107 -159 -199 -85 -86 -114 -132 -114 -180 1 -22 12 -37 50
-67 28 -22 50 -42 50 -46 0 -15 -75 -93 -130 -135 -121 -93 -292 -164 -432
-180 -150 -17 -241 -39 -374 -91 -156 -61 -319 -92 -459 -89 -60 2 -126 6
-145 10 -49 9 -173 46 -185 55 -11 8 -100 38 -131 44 -10 2 -55 13 -99 25 -44
11 -96 23 -115 26 -19 3 -46 7 -60 10 -14 3 -41 7 -60 10 -192 31 -433 144
-525 247 l-38 41 56 53 c31 29 57 59 58 66 9 46 -17 84 -140 206 -72 73 -137
147 -151 174 l-24 46 35 28 c78 64 108 100 103 122 -9 32 -38 53 -83 59 -44 6
-78 -11 -151 -77 -19 -18 -52 -46 -74 -64 -114 -92 -128 -109 -128 -155 1 -45
33 -124 81 -196 14 -22 28 -42 31 -45 3 -3 18 -22 34 -43 15 -21 40 -51 55
-66 14 -16 42 -45 61 -65 l35 -37 -44 -40 c-42 -39 -43 -42 -39 -89 10 -98
142 -260 279 -341 144 -86 427 -179 589 -194 36 -3 74 -8 85 -10 11 -3 33 -7
48 -9 35 -6 135 -34 162 -45 27 -12 117 -45 130 -47 6 -1 48 -13 95 -25 75
-21 108 -23 290 -24 142 0 222 4 260 14 52 13 302 101 345 121 34 16 110 30
201 35 159 10 335 55 463 120 183 92 379 312 396 444 4 36 1 44 -28 71 -17 16
-35 30 -39 30 -19 0 -4 26 45 83 151 176 234 339 213 421 -6 23 -57 66 -259
219 -55 42 -103 48 -149 20z"/>
</g>
</svg>
